<svg width="28" height="23" viewBox="0 0 28 23" fill="none" xmlns="http://www.w3.org/2000/svg">
<path d="M13.9974 0L0.664062 12H4.66406V22.6667H23.3307V12H27.3307L13.9974 0ZM13.9974 7.33333C17.1174 7.33333 19.9441 8.57333 21.9974 10.5867L20.3974 12.16C18.7707 10.5467 16.5041 9.56 13.9974 9.56C11.4907 9.56 9.22406 10.5467 7.59739 12.16L5.9974 10.5867C8.05073 8.57333 10.8774 7.33333 13.9974 7.33333ZM13.9974 11.7733C15.8641 11.7733 17.5574 12.52 18.7974 13.7333L17.1974 15.2933C16.3841 14.4933 15.2507 14 13.9974 14C12.7441 14 11.6107 14.4933 10.7974 15.2933L9.19739 13.7333C10.4374 12.52 12.1307 11.7733 13.9974 11.7733ZM13.9974 16.2267C15.2507 16.2267 16.2641 17.2133 16.2641 18.44C16.2641 19.6667 15.2507 20.6667 13.9974 20.6667C12.7441 20.6667 11.7307 19.6667 11.7307 18.44C11.7307 17.2133 12.7441 16.2267 13.9974 16.2267Z" fill="white"/>
</svg>
