<svg width="28" height="28" viewBox="0 0 28 28" fill="none" xmlns="http://www.w3.org/2000/svg">
<path d="M13.9974 12.667C13.6438 12.667 13.3046 12.8075 13.0546 13.0575C12.8045 13.3076 12.6641 13.6467 12.6641 14.0003C12.6641 14.3539 12.8045 14.6931 13.0546 14.9431C13.3046 15.1932 13.6438 15.3337 13.9974 15.3337C14.351 15.3337 14.6902 15.1932 14.9402 14.9431C15.1903 14.6931 15.3307 14.3539 15.3307 14.0003C15.3307 13.6467 15.1903 13.3076 14.9402 13.0575C14.6902 12.8075 14.351 12.667 13.9974 12.667ZM14.6641 0.666992C20.6641 0.666992 20.8107 5.42699 17.6641 7.00033C16.3441 7.65366 15.7574 9.05366 15.5041 10.2937C16.1441 10.5603 16.7041 10.9737 17.1307 11.507C22.0641 8.84033 27.3707 9.89366 27.3707 14.667C27.3707 20.667 22.6107 20.8003 21.0374 17.6403C20.3707 16.3203 18.9574 15.7337 17.7174 15.4803C17.4507 16.1203 17.0374 16.667 16.5041 17.1203C19.1574 22.0403 18.1041 27.3337 13.3307 27.3337C7.33073 27.3337 7.21073 22.5603 10.3574 20.987C11.6641 20.3337 12.2507 18.947 12.5174 17.7203C11.8641 17.4537 11.2907 17.027 10.8641 16.4937C5.94406 19.1337 0.664062 18.0937 0.664062 13.3337C0.664062 7.33366 5.41073 7.18699 6.98406 10.347C7.65073 11.667 9.05073 12.2403 10.2907 12.4937C10.5441 11.8537 10.9707 11.2937 11.5174 10.867C8.86406 5.94699 9.9174 0.666992 14.6641 0.666992Z" fill="white"/>
</svg>
