<svg width="28" height="23" viewBox="0 0 28 23" fill="none" xmlns="http://www.w3.org/2000/svg">
<path d="M13.9974 0L0.664062 12H4.66406V22.6667H23.3307V12H27.3307L13.9974 0ZM13.9974 7.66667C14.793 7.66667 15.5561 7.98274 16.1187 8.54535C16.6813 9.10795 16.9974 9.87102 16.9974 10.6667C16.9974 11.4623 16.6813 12.2254 16.1187 12.788C15.5561 13.3506 14.793 13.6667 13.9974 13.6667C13.2017 13.6667 12.4387 13.3506 11.8761 12.788C11.3135 12.2254 10.9974 11.4623 10.9974 10.6667C10.9974 9.87102 11.3135 9.10795 11.8761 8.54535C12.4387 7.98274 13.2017 7.66667 13.9974 7.66667ZM13.9974 16C15.9974 16 19.9974 17 19.9974 19V20H7.9974V19C7.9974 17 11.9974 16 13.9974 16Z" fill="white"/>
</svg>
