<svg width="19" height="27" viewBox="0 0 19 27" fill="none" xmlns="http://www.w3.org/2000/svg">
<path d="M9.33333 0C11.8087 0 14.1827 0.98333 15.933 2.73367C17.6833 4.48401 18.6667 6.85798 18.6667 9.33333C18.6667 12.5067 17.08 15.2933 14.6667 16.9867V20C14.6667 20.3536 14.5262 20.6928 14.2761 20.9428C14.0261 21.1929 13.687 21.3333 13.3333 21.3333H5.33333C4.97971 21.3333 4.64057 21.1929 4.39052 20.9428C4.14048 20.6928 4 20.3536 4 20V16.9867C1.58667 15.2933 0 12.5067 0 9.33333C0 6.85798 0.98333 4.48401 2.73367 2.73367C4.48401 0.98333 6.85798 0 9.33333 0ZM5.33333 25.3333V24H13.3333V25.3333C13.3333 25.687 13.1929 26.0261 12.9428 26.2761C12.6928 26.5262 12.3536 26.6667 12 26.6667H6.66667C6.31304 26.6667 5.97391 26.5262 5.72386 26.2761C5.47381 26.0261 5.33333 25.687 5.33333 25.3333ZM9.33333 2.66667C7.56522 2.66667 5.86953 3.36905 4.61929 4.61929C3.36905 5.86953 2.66667 7.56522 2.66667 9.33333C2.66667 12.0667 4.30667 14.4133 6.66667 15.44V18.6667H12V15.44C14.36 14.4133 16 12.0667 16 9.33333C16 7.56522 15.2976 5.86953 14.0474 4.61929C12.7971 3.36905 11.1014 2.66667 9.33333 2.66667Z" fill="white"/>
</svg>
