<svg width="24" height="28" viewBox="0 0 24 28" fill="none" xmlns="http://www.w3.org/2000/svg">
<path d="M24 19.9998C24 20.5065 23.72 20.9465 23.2933 21.1732L12.76 27.0932C12.5467 27.2532 12.28 27.3332 12 27.3332C11.72 27.3332 11.4533 27.2532 11.24 27.0932L0.706667 21.1732C0.28 20.9465 0 20.5065 0 19.9998V7.99984C0 7.49317 0.28 7.05317 0.706667 6.8265L11.24 0.906504C11.4533 0.746504 11.72 0.666504 12 0.666504C12.28 0.666504 12.5467 0.746504 12.76 0.906504L23.2933 6.8265C23.72 7.05317 24 7.49317 24 7.99984V19.9998ZM12 3.53317L4.05333 7.99984L12 12.4665L19.9467 7.99984L12 3.53317ZM2.66667 19.2132L10.6667 23.7198V14.7732L2.66667 10.2798V19.2132ZM21.3333 19.2132V10.2798L13.3333 14.7732V23.7198L21.3333 19.2132Z" fill="white"/>
</svg>
