<svg width="32" height="32" viewBox="0 0 32 32" fill="none" xmlns="http://www.w3.org/2000/svg">
<path d="M16 24.4881C14.7409 24.4881 13.5385 24.2051 12.4633 23.71C15.3775 22.366 17.4147 19.4235 17.4147 16C17.4147 12.5765 15.3775 9.63395 12.4633 8.29001C13.5385 7.79487 14.7409 7.51194 16 7.51194C18.2512 7.51194 20.4102 8.40621 22.002 9.99803C23.5938 11.5899 24.4881 13.7488 24.4881 16C24.4881 18.2512 23.5938 20.4102 22.002 22.002C20.4102 23.5938 18.2512 24.4881 16 24.4881ZM27.3174 11.3174V4.68258H20.6826L16 0L11.3174 4.68258H4.68258V11.3174L0 16L4.68258 20.6826V27.3174H11.3174L16 32L20.6826 27.3174H27.3174V20.6826L32 16L27.3174 11.3174Z" fill="white"/>
</svg>
