<?xml version="1.0" encoding="UTF-8"?>
<!DOCTYPE svg PUBLIC "-//W3C//DTD SVG 1.1//EN" "http://www.w3.org/Graphics/SVG/1.1/DTD/svg11.dtd">
<!-- Creator: CorelDRAW 2020 (64-Bit) -->
<svg xmlns="http://www.w3.org/2000/svg" xml:space="preserve" width="95.222mm" height="30.4409mm" version="1.1" style="shape-rendering:geometricPrecision; text-rendering:geometricPrecision; image-rendering:optimizeQuality; fill-rule:evenodd; clip-rule:evenodd"
viewBox="0 0 4706.66 1504.64"
 xmlns:xlink="http://www.w3.org/1999/xlink"
 xmlns:xodm="http://www.corel.com/coreldraw/odm/2003">
 <defs>
  <style type="text/css">
   <![CDATA[
    .fil0 {fill:#00BDDD}
   ]]>
  </style>
 </defs>
 <g id="Слой_x0020_1">
  <metadata id="CorelCorpID_0Corel-Layer"/>
  <g id="_1121796784">
   <path class="fil0" d="M3698.75 195.2l769.44 0 0 656.95 -769.44 0 0 -656.95zm-697.44 -152.99l0 166.48c0,22.25 18.25,40.5 40.5,40.5l161.99 0c22.24,0 40.49,-18.25 40.49,-40.5l0 -166.48c0,-22.23 -18.25,-40.5 -40.49,-40.5l-161.99 0c-22.24,0 -40.5,18.26 -40.5,40.5zm0 337.47l0 629.96c0,22.24 18.25,40.48 40.5,40.48l161.99 0c22.24,0 40.49,-18.24 40.49,-40.48l0 -629.96c0,-22.24 -18.25,-40.49 -40.49,-40.49l-161.99 0c-22.24,0 -40.5,18.24 -40.5,40.49zm-3001.24 -283.48l-0.06 778.5c-0.16,30.28 4.42,40.84 4.75,67.26 1.54,125.08 -16.63,108.16 170.8,108.16 30.39,0 40.71,-21.78 40.76,-53.73l-0.27 -684.2c20.29,23.33 27.3,49.43 47.51,82.99l360.03 499.4c36.42,48.95 37.96,49.74 96.4,-33.46l167.39 -233.06c54.45,-79.95 150.02,-193.74 189.59,-273.88 10.34,-20.89 10.46,-24.66 25.5,-41.98l-0.18 679.63c-0.52,76.16 38.78,58.3 171.18,58.3 49.85,0 40.27,-54.71 40.33,-103.64 0.04,-28.44 4.89,-37.4 4.76,-67.23l-0.1 -783.05c0,-114.03 -64.45,-94.48 -179.99,-94.48 -13.44,0 -26.32,22.53 -34.1,33.4l-298.84 407.59c-10.37,14.76 -18.97,26.52 -30.28,41.7l-89.46 122.09c-15.55,24.13 -9.52,22.81 -37.77,25.15 -15.39,-29.08 -35.35,-53.14 -55.28,-79.7 -20.98,-27.95 -37.91,-52.25 -59.16,-80.35l-289.26 -394.67c-71.35,-95.01 -29.5,-75.22 -172.26,-75.22 -55.23,0 -72,39.2 -72,94.48zm1781.85 99l764.93 0 0 656.95 -764.93 0 0 -656.95zm-238.48 45l0 566.94c0,107.09 17.71,191.33 111.81,225.67 23.67,8.63 66.16,17.3 99.67,17.3l814.43 0c153.5,0 215.98,-69.24 215.98,-233.96l0 -580.47c0,-72.92 -14.73,-162.18 -76.61,-197.88 -58.23,-33.6 -151.43,-36.1 -242.86,-36.1l-602.95 0c-213.74,0 -319.46,15.66 -319.46,238.49zm1916.83 8.99l0 557.95c0,67.25 12.25,145.33 43.79,181.2 37.89,43.1 105.91,61.78 167.7,61.78l823.42 0c45.99,0 111.53,-13.61 147.41,-41.59 1.76,-1.36 5.41,-4.29 7.4,-6.08 8.26,-7.35 1.64,-0.74 9,-9 35.18,-39.4 47.67,-105.96 47.67,-177.29l0 -580.47c0,-46.54 -7.11,-85.18 -18.46,-121.02 -36.95,-116.71 -175.65,-112.96 -310.01,-112.96l-593.95 0c-97.81,0 -237.65,-0.25 -284.55,70.92 -31.72,48.1 -39.42,114.39 -39.42,176.55z"/>
   <path class="fil0" d="M2411.83 1230.11c19.11,0 37.44,1.49 52.31,-15.17 10.22,-11.45 9.03,-21.52 15.18,-34.32 -27.69,0.61 -11.57,-1.55 -26.3,18.72 -16.48,22.67 -46.52,21.86 -62.54,2.62 -16.68,-20.04 0.6,-20.7 -28.15,-21.34 7.18,14.94 2.26,22.1 14.6,34.89 6.42,6.65 22.59,14.61 34.9,14.61zm-179.99 202.48l17.99 0 0 -170.97 -17.99 0 0 170.97zm-85.49 -17.99l-67.5 0 0 -76.5c27.03,0 65.04,-3.37 85.7,8.81 30.75,18.11 18.92,67.69 -18.2,67.69zm-85.49 17.99c75.01,0 139.49,14.95 139.49,-58.49 0,-60.43 -80.36,-53.99 -121.49,-53.99l0 -58.5 -17.99 0 0 170.97zm-251.98 0l18 0 0 -80.97 116.99 0 0 80.97 18 0 0 -170.97 -18 0 0 71.99 -116.99 0 0 -71.99 -18 0 0 170.97zm-458.96 -4.49c0,1.11 -18.95,81.61 -76.49,54 0.53,24.61 -0.26,22.5 31.49,22.5 26.11,0 41.5,-24.14 51.12,-43.38l92.89 -204.1c-28.46,0 -24.09,4.62 -32.24,26.28 -5.44,14.47 -11.93,24.39 -18.57,39.93 -6.92,16.17 -11.45,25.28 -17.99,40.5 -3.87,9.02 -4.78,13.32 -9.07,22.42l-12.13 19.37 -53.9 -121.59c-9.94,-20.86 -5.44,-26.32 -31.59,-26.9 4.72,20.3 27.26,63.58 37.53,83.96 4.97,9.86 38.96,83.39 38.96,87.03zm1709.85 -152.99c46.33,0 85.51,16.86 85.51,72 0,98.72 -150.58,94.21 -147.85,0.42 1.03,-35.1 26.74,-72.41 62.34,-72.41zm-80.98 67.49c0,29.46 5.21,47.31 23.38,66.62 33.87,36.03 98.68,39.29 133.2,4.48 63.44,-63.95 9.2,-156.59 -48.59,-156.59 -33.06,0 -55.62,-2.97 -84.62,27.88 -12.73,13.53 -23.38,32.88 -23.38,57.61zm-634.45 89.99c4.28,0 8.61,0.43 12.8,-0.68 18.12,-4.85 79.12,-86.68 93.24,-104.76 7.57,-9.72 26.13,-33.17 33.44,-38.53l0 143.97 18.02 0 0 -175.48c-28.26,0.63 -24.72,10.83 -39.5,27.99 -18.59,21.6 -84.51,105.63 -99.99,115.99l0 -143.98 -18 0 0 175.48zm904.42 -161.98l0 161.98 18 0 0 -143.97c17.96,12.03 54.31,66.12 76.49,80.99 8.86,-8.39 25.9,-26.88 34.67,-37.32 13.89,-16.55 19.34,-27.13 37.33,-39.16l0 139.47 18 0 0 -175.48c-20.86,1.73 -34.99,21.58 -47.59,37.89 -7.51,9.74 -35.54,42.59 -42.4,47.6 -18.64,-12.49 -29.23,-30.92 -46.17,-48.32 -3.61,-3.69 -48.32,-66.42 -48.32,-23.67zm-1723.35 0l0 161.98 18 0 0 -143.97c17.97,12.03 54.3,66.12 76.5,80.99 27.13,-25.75 51.58,-62.82 72,-76.49l0 139.47 18 0 0 -175.48c-17.93,1.5 -14.85,2.93 -26.11,14.39l-63.89 71.1c-28.18,-18.85 -94.49,-124.12 -94.49,-71.99zm1250.88 44.99l0 -40.5 90 0 0 139.49 -117 0c16.3,-24.32 27,-59.17 27,-98.99zm-71.98 112.49l0 58.5 17.99 0 0 -54.01 175.49 0 0 54.01 18 0 0 -72 -31.5 0 0 -143.99c0,-23.48 -47.63,-13.5 -112.48,-13.5 -19.84,0 -13.69,24.32 -13.42,45.07 0.35,27.8 -6.78,72.24 -19.93,97.07 -10.75,20.31 -7.55,10.53 -16.92,14.57 -11.5,4.94 -17.21,-1.04 -17.21,14.28z"/>
  </g>
 </g>
</svg>
