<svg width="36" height="36" viewBox="0 0 36 36" fill="none" xmlns="http://www.w3.org/2000/svg">
<path d="M29.6667 29.6667V6.33333H6.33333V29.6667H29.6667ZM29.6667 3C30.5507 3 31.3986 3.35119 32.0237 3.97631C32.6488 4.60143 33 5.44928 33 6.33333V29.6667C33 30.5507 32.6488 31.3986 32.0237 32.0237C31.3986 32.6488 30.5507 33 29.6667 33H6.33333C5.44928 33 4.60143 32.6488 3.97631 32.0237C3.35119 31.3986 3 30.5507 3 29.6667V6.33333C3 4.48333 4.5 3 6.33333 3H29.6667ZM16.3333 9.66667H19.6667V16.3333H26.3333V19.6667H19.6667V26.3333H16.3333V19.6667H9.66667V16.3333H16.3333V9.66667Z" fill="white"/>
</svg>
